<svg width="363" height="272" viewBox="0 0 363 272" fill="none" xmlns="http://www.w3.org/2000/svg">
<rect x="30" y="64" width="87" height="56" rx="10" fill="#D9D9D9"/>
<circle cx="106" cy="108" r="6" fill="#A8A4A4"/>
<rect x="39" y="74" width="47" height="8" rx="4" fill="#A8A4A4"/>
<rect x="39" y="74" width="56" height="32" rx="5" fill="#A8A4A4"/>
<rect x="232" y="132" width="87" height="56" rx="10" fill="#D9D9D9"/>
<circle cx="308" cy="176" r="6" fill="#A8A4A4"/>
<rect x="241" y="142" width="47" height="8" rx="4" fill="#A8A4A4"/>
<rect x="241" y="142" width="56" height="32" rx="5" fill="#A8A4A4"/>
<rect x="30" y="200" width="87" height="56" rx="10" fill="#D9D9D9"/>
<circle cx="106" cy="244" r="6" fill="#A8A4A4"/>
<rect x="39" y="210" width="47" height="8" rx="4" fill="#A8A4A4"/>
<rect x="39" y="210" width="56" height="32" rx="5" fill="#A8A4A4"/>
<rect x="30" y="132" width="87" height="56" rx="10" fill="#D9D9D9"/>
<circle cx="106" cy="176" r="6" fill="#A8A4A4"/>
<rect x="39" y="142" width="47" height="8" rx="4" fill="#A8A4A4"/>
<rect x="39" y="142" width="56" height="32" rx="5" fill="#A8A4A4"/>
<rect x="232" y="64" width="87" height="56" rx="10" fill="#D9D9D9"/>
<circle cx="308" cy="108" r="6" fill="#A8A4A4"/>
<rect x="241" y="74" width="47" height="8" rx="4" fill="#A8A4A4"/>
<rect x="241" y="74" width="56" height="32" rx="5" fill="#A8A4A4"/>
<rect x="131" y="64" width="87" height="56" rx="10" fill="#D9D9D9"/>
<circle cx="207" cy="108" r="6" fill="#A8A4A4"/>
<rect x="140" y="74" width="47" height="8" rx="4" fill="#A8A4A4"/>
<rect x="140" y="74" width="56" height="32" rx="5" fill="#A8A4A4"/>
<rect x="30" y="34" width="289" height="18" rx="5" fill="#A8A4A4"/>
</svg>
