<svg width="242" height="257" viewBox="0 0 242 257" fill="none" xmlns="http://www.w3.org/2000/svg">
<rect x="29" y="50" width="87" height="56" rx="10" fill="#D9D9D9"/>
<circle cx="105" cy="94" r="6" fill="#A8A4A4"/>
<rect x="38" y="60" width="47" height="8" rx="4" fill="#A8A4A4"/>
<rect x="38" y="60" width="56" height="32" rx="5" fill="#A8A4A4"/>
<rect x="129" y="118" width="87" height="56" rx="10" fill="#D9D9D9"/>
<circle cx="205" cy="162" r="6" fill="#A8A4A4"/>
<rect x="138" y="128" width="47" height="8" rx="4" fill="#A8A4A4"/>
<rect x="138" y="128" width="56" height="32" rx="5" fill="#A8A4A4"/>
<rect x="29" y="186" width="87" height="56" rx="10" fill="#D9D9D9"/>
<circle cx="105" cy="230" r="6" fill="#A8A4A4"/>
<rect x="38" y="196" width="47" height="8" rx="4" fill="#A8A4A4"/>
<rect x="38" y="196" width="56" height="32" rx="5" fill="#A8A4A4"/>
<rect x="29" y="118" width="87" height="56" rx="10" fill="#D9D9D9"/>
<circle cx="105" cy="162" r="6" fill="#A8A4A4"/>
<rect x="38" y="128" width="47" height="8" rx="4" fill="#A8A4A4"/>
<rect x="38" y="128" width="56" height="32" rx="5" fill="#A8A4A4"/>
<rect x="129" y="50" width="87" height="56" rx="10" fill="#D9D9D9"/>
<circle cx="205" cy="94" r="6" fill="#A8A4A4"/>
<rect x="138" y="60" width="47" height="8" rx="4" fill="#A8A4A4"/>
<rect x="138" y="60" width="56" height="32" rx="5" fill="#A8A4A4"/>
<rect x="29" y="20" width="187" height="18" rx="5" fill="#A8A4A4"/>
</svg>
